<svg viewBox="0 0 1500 1500" xmlns="http://www.w3.org/2000/svg"><g fill="none"><path d="m711.72 658.79-11.01 28.96-67.69 178.01c37.7-8.95 76.56-19.2 115.88-30.65 9.08-2.64 18.01-5.31 26.83-7.98l-55.15-145.04-8.86-23.31z"/><path d="m408.18 830.34v54.04h-127.22c-.72 1.96-1.14 4.1-.52 5.79.08.2 10.95 24.99 140.47 12.75 42.34-4.01 90.26-11.41 141.52-21.68l67.85-172.08c-129.53 41.51-228 85.27-287.14 121.18z"/><path d="m1072.33 618.72c-28.33.68-62.99 3.61-103.57 9.35-6.55 17.91-23.7 30.72-43.88 30.72-14.57 0-27.58-6.66-36.15-17.11-34.44 6.76-71.86 15.16-112.14 25.42l56.01 142.05c102.37-33.81 184.04-68.76 240.57-99.47-10.59-12.25-16.72-27.34-16.52-45.32-.15-16.62 5.52-32.31 15.68-45.64z"/></g><path d="m1219.63 714.97-67.91-21.86-6.71-2.16c-10.03-3.05-17.27-6.89-21.99-11.66-4.56-4.62-6.75-10.11-6.75-16.65 0-16.26 16.16-30.3 42-32.32 2.1-.16 4.24-.28 6.47-.28 9.29 0 18.11 1.3 26.31 3.63 21.68 6.17 38.86 19.8 47.89 37.54l54.47-15.87c-16.3-41.6-64.33-77.2-129.09-77.2-21.6 0-41.15 4.7-57.49 12.77-26.27-1.49-58.59-.27-96.94 3.72-12.81 1.33-26.16 2.97-39.97 4.89-5.47-19.75-23.53-34.27-45.03-34.27-25.83 0-46.76 20.94-46.76 46.76 0 1.03.09 2.04.15 3.06-36.22 7.14-73.99 15.65-112.21 25.31l-22.17-56.23h-64.33l-35.77 90.71c-137.36 42.88-282.15 102.13-350.97 155.47h-34.32v-246.18h-58.76v300.22h52c-.6 5.21-.04 10.25 1.74 15.07 2.63 7.06 7.61 13.13 14.82 18.06 16.79 11.47 47 17.23 90.17 17.23 19.35 0 41.3-1.16 65.81-3.47 92.73-8.78 211.09-33.22 333.28-68.8 9.39-2.74 18.86-5.57 28.38-8.47l11.55 30.39h64.76l-19.18-48.65c94.16-31.46 187.63-69.43 253.92-106.84 8.27 4.76 17.51 8.7 27.42 11.82l76.77 24.02c28.74 9.43 39.46 20.16 39.46 36.03 0 19.73-21.87 37.74-57.04 37.74-43.31 0-73.76-24.88-85.78-56.18l-56.18 17.16c16.73 46.75 65.19 90.92 138.53 90.92s120.09-41.6 120.09-93.07-34.74-68.19-80.63-82.35zm-657.2 166.26c-51.26 10.27-99.19 17.67-141.52 21.68-129.52 12.24-140.39-12.54-140.47-12.75-.62-1.69-.2-3.83.52-5.79h127.22v-54.04h-65.04c59.14-35.92 157.6-79.68 287.14-121.18zm186.48-46.12c-39.32 11.45-78.18 21.7-115.88 30.65l67.69-178.01 11.01-28.96 8.86 23.31 55.15 145.04c-8.82 2.67-17.75 5.33-26.83 7.98zm83.69-25.97-56.01-142.05c40.27-10.27 77.7-18.67 112.14-25.42 8.58 10.44 21.58 17.11 36.15 17.11 20.18 0 37.32-12.81 43.88-30.72 40.58-5.74 75.24-8.67 103.57-9.35-10.16 13.33-15.83 29.02-15.68 45.64-.2 17.98 5.93 33.07 16.52 45.32-56.54 30.7-138.2 65.65-240.57 99.47z" fill="#fff"/></svg>