<svg viewBox="0 0 1500 1500" xmlns="http://www.w3.org/2000/svg"><path d="m604.08 889.9h211.09v-50.83h-156.17v-70.5h135.68v-49.18h-135.68v-65.58h156.58v-50.83h-211.5z" fill="none"/><g fill="#fff"><path d="m967.26 537.3c-18.43.74-36.85 1.67-55.28 2.35-7.14.26-14.28.04-21.64.04-8.32 0-16.41-.15-24.5.04-11.18.25-22.36.7-33.48-7.25-1.51-1.08-3.05-2.87-4.54-2.22-3.88 1.71-7.75 6.67-11.62 6.66-19.18-.04-38.35-1.13-57.53-2.12-8.96-.47-17.91-1.66-26.87-2.31-4.06-.29-8.12.51-12.17-.33-1.58-.33-3.17-3.35-4.71-5.94-3.47-5.87-6.64-16.06-10.52-15.76-17.3 1.36-34.6 2.39-51.89 2.55-38.48.35-76.96.2-115.43 0-5.27-.03-10.55-1.86-15.82-2.24-14.07-1.01-28.13-1.64-42.2-2.56-1.15-.08-1.64 1.37-1.83 8.39-.28 10.51-1.64 20.9.61 29.99.3 1.21.36 5 .33 7.54-.27 26.32-.51 52.66-.91 78.92-.2 13.15-.91 14.35-3.45 10.66-3.34-4.87-2.92-4.8-3.72 12.57-1.42 31.13-2.77 62.37-4.06 93.66-.98 23.68-1.79 47.55-2.73 71.28-1.02 25.89-2.18 51.62-3.11 77.61-.34 9.69-1 24.04-.11 29.03 2.12 11.84 1.16 20.26.16 30.8-.31 3.21-.19 7.58-.26 11.42.56-.11 1.12-.26 1.68-.31.53-.05 1.05-.04 1.58 0 11.21.8 22.42 1.91 33.63 2.35 25.41 1 50.83 1.62 76.24 2.49 20.76.72 41.51 2.35 62.27 2.12 12.5-.14 25.02 3.82 37.51-4.24 5.32-3.44 10.71-3.79 16.08-5.06 4.9-1.16 9.8-2.48 14.69-2.35 16.1.42 32.19 1.32 48.29 2.49 1.6.12 3.23 2.55 4.77 5.2 4.52 7.8 9.03 16.1 13.84 16.16 3.09.04 6.19-1.71 9.28-2.2 6.25-.99 12.5-2.16 18.75-2.39 28.35-1 56.69-1.7 85.04-2.5.98-.03 1.97.56 2.93-.15 1.18-.88 2.39-2.08 3.48-4.47 1.84-4.01 3.4-3.88 4.94 3.84 1.45 7.23 3.12 10.87 5.27 10.74 10.37-.66 20.74-.3 31.11-.3 11.05 0 22.09-.06 33.14.08 1.33.02 2.36-1.06 2.51-9.53.13-7.73.35-15.42.44-23.16.32-29.93.61-59.87.91-89.8.3-30.34.6-60.68.9-91.01.3-29.53.64-59.05.89-88.6.21-25.82.23-51.7.5-77.5.13-12.13.42-24.32 3.23-29.29.72-1.28 1.67-9.69 1.48-13.25-1.26-23.68-3.55-32.31-8.09-32.12zm-151.68 116.51h-156.58v65.58h135.67v49.19h-135.67v70.5h156.17v50.83h-211.09v-286.92h211.5v50.83z"/><path d="m219.41 602.98h-56.16v286.92h199.21v-51.65h-143.05z"/><path d="m1198.21 842.76c-56.56 0-92.63-45.5-92.63-97.14s36.07-95.5 92.63-95.5c43.45 0 74.19 25.82 83.62 53.7l54.93-13.53c-13.12-45.5-61.48-93.04-138.95-93.04-85.26 0-149.61 64.35-149.61 148.79s64.35 149.61 150.83 149.61c75.83 0 124.2-46.32 137.31-92.22l-54.51-13.94c-9.43 28.28-40.17 53.28-83.62 53.28z"/></g></svg>