<svg xmlns="http://www.w3.org/2000/svg" viewBox="0 0 830.49 97.26" fill="white"><path d="M65.61,78.88v17.01H0V1.4H18.49V78.88h47.11Z"/><path d="M121.34,1.4h18.76V95.89h-18.76V1.4Z"/><path d="M282.77,1.4V95.89h-15.25l-47.52-61.42v61.42h-18.49V1.4h15.25l47.52,61.29V1.4h18.49Z"/><path d="M362.26,18.13v21.6h44.68v16.2h-44.68v23.22h51.43v16.74h-69.52V1.4h69.66V18.13h-51.57Z"/><path d="M533.81,75.37h-42.52l-7.83,20.52h-19.17L500.47,1.4h24.03l36.31,94.5h-19.3l-7.69-20.52Zm-6.21-16.33l-15.12-39.96-15.12,39.96h30.24Z"/><path d="M703.34,52.83c.62,62.91-100.49,56.81-98.14-4.32-2.33-53.52,78.51-66.42,94.9-20.11l-17.14,4.86c-12.86-28.22-60.53-17.55-58.99,15.12-3.07,33.7,54.02,46.22,60.21,10.93h-29.02v-15.93h48.19v9.45Z"/><path d="M778.92,18.13v21.6h44.68v16.2h-44.68v23.22h51.43v16.74h-69.52V1.4h69.66V18.13h-51.57Z"/></svg>