<svg fill="#fff" viewBox="0 0 830.49 97.26" xmlns="http://www.w3.org/2000/svg"><path d="m65.61 78.88v17.01h-65.61v-94.49h18.49v77.48h47.11z"/><path d="m121.34 1.4h18.76v94.49h-18.76z"/><path d="m282.77 1.4v94.49h-15.25l-47.52-61.42v61.42h-18.49v-94.49h15.25l47.52 61.29v-61.29z"/><path d="m362.26 18.13v21.6h44.68v16.2h-44.68v23.22h51.43v16.74h-69.52v-94.49h69.66v16.73z"/><path d="m533.81 75.37h-42.52l-7.83 20.52h-19.17l36.18-94.49h24.03l36.31 94.5h-19.3l-7.69-20.52zm-6.21-16.33-15.12-39.96-15.12 39.96z"/><path d="m703.34 52.83c.62 62.91-100.49 56.81-98.14-4.32-2.33-53.52 78.51-66.42 94.9-20.11l-17.14 4.86c-12.86-28.22-60.53-17.55-58.99 15.12-3.07 33.7 54.02 46.22 60.21 10.93h-29.02v-15.93h48.19v9.45z"/><path d="m778.92 18.13v21.6h44.68v16.2h-44.68v23.22h51.43v16.74h-69.52v-94.49h69.66v16.73z"/></svg>